# AST/ASF file generated using VICON BodyLanguage
# -----------------------------------------------
:version 1.10
:name VICON
:units
  mass 1.0
  length 0.45
  angle deg
:documentation
   .ast/.asf automatically generated from VICON data using
   VICON BodyBuilder and BodyLanguage model FoxedUp or BRILLIANT.MOD
:root
   order TX TY TZ RX RY RZ
   axis XYZ
   position 0 0 0  
   orientation 0 0 0 
:bonedata
  begin
     id 1 
     name lhipjoint
     direction 0.575328 -0.747301 0.332475 
     length 2.40933 
     axis 0 0 0  XYZ
  end
  begin
     id 2 
     name lfemur
     direction 0.34202 -0.939693 0  
     length 7.31453  
     axis 0 0 20  XYZ
    dof rx ry rz
    limits (-160.0 20.0)
           (-70.0 70.0)
           (-60.0 70.0)
  end
  begin
     id 3 
     name ltibia
     direction 0.34202 -0.939693 0   
     length 7.82185   
     axis 0 0 20   XYZ
    dof rx
    limits (-10.0 170.0)
  end
  begin
     id 4 
     name lfoot
     direction 0.0795993 -0.218697 0.972541   
     length 2.19173   
     axis -90 7.62852e-016 20   XYZ
    dof rx rz
    limits (-45.0 90.0)
           (-70.0 20.0)
  end
  begin
     id 5 
     name ltoes
     direction 1.53537e-011 -4.21894e-011 1   
     length 1.10023   
     axis -90 7.62852e-016 20   XYZ
    dof rx
    limits (-90.0 20.0)
  end
  begin
     id 6 
     name rhipjoint
     direction -0.513884 -0.783789 0.348708   
     length 2.29716  
     axis 0 0 0  XYZ 
  end
  begin
     id 7 
     name rfemur
     direction -0.34202 -0.939693 0   
     length 7.59573   
     axis 0 0 -20   XYZ
    dof rx ry rz
    limits (-160.0 20.0)
           (-70.0 70.0)
           (-70.0 60.0)
  end
  begin
     id 8 
     name rtibia
     direction -0.34202 -0.939693 0   
     length 7.66402   
     axis 0 0 -20   XYZ
    dof rx
    limits (-10.0 170.0)
 end
 begin
     id 9 
     name rfoot
     direction -0.137793 -0.378584 0.915253   
     length 2.27056  
     axis -90 -7.62852e-016 -20   XYZ
    dof rx rz
    limits (-45.0 90.0)
           (-20.0 70.0)
  end
  begin
     id 10 
     name rtoes
     direction -1.53493e-011 -4.22159e-011 1   
     length 1.11766   
     axis -90 -7.62852e-016 -20   XYZ
    dof rx
    limits (-90.0 20.0)
  end
  begin
     id 11 
     name lowerback
     direction -0.00732775 0.998356 -0.05685   
     length 2.16513   
     axis 0 0 0   XYZ
    dof rx ry rz
    limits (-20.0 45.0)
           (-30.0 30.0)
           (-30.0 30.0)
  end
  begin
     id 12 
     name upperback
     direction 0.0218081 0.999627 -0.0164647   
     length 2.16755   
     axis 0 0 0   XYZ
    dof rx ry rz
    limits (-20.0 45.0)
           (-30.0 30.0)
           (-30.0 30.0)
  end
  begin
     id 13 
     name thorax
     direction 0.02365 0.999661 0.0108914   
     length 2.16932   
     axis 0 0 0   XYZ
    dof rx ry rz
    limits (-20.0 45.0)
           (-30.0 30.0)
           (-30.0 30.0)
  end
  begin
     id 14 
     name lowerneck
     direction -0.0523929 0.978385 0.200044   
     length 1.63877   
     axis 0 0 0   XYZ
    dof rx ry rz
    limits (-20.0 45.0)
           (-30.0 30.0)
           (-30.0 30.0)
  end
  begin
     id 15 
     name upperneck
     direction 0.0448674 0.981321 -0.187074   
     length 1.69014   
     axis 0 0 0   XYZ
    dof rx ry rz
    limits (-20.0 45.0)
           (-30.0 30.0)
           (-30.0 30.0)
  end
  begin
     id 16
     name head
     direction 0.0199089 0.996118 -0.0857429  
     length 1.70094  
     axis 0 0 0   XYZ
    dof rx ry rz
    limits (-20.0 45.0)
           (-30.0 30.0)
           (-30.0 30.0)
  end
  begin
     id 17 
     name lclavicle
     direction 0.940366 0.30191 -0.156722  
     length 3.37521  
     axis 0 0 0   XYZ
    dof ry rz
    limits (-20.0 10.0)
           (0.0 20.0)
  end
  begin
     id 18 
     name lhumerus
     direction 1 -4.4897e-011 -1.7911e-027   
     length 5.25287   
     axis 180 -30 -90   XYZ
    dof rx ry rz
    limits (-60.0 90.0)
           (-90.0 90.0)
           (-90.0 90.0)
  end
  begin
     id 19
     name lradius
     direction 1 -4.48951e-011 1.04424e-027   
     length 3.51014   
     axis 180 -30 -90   XYZ
    dof rx
    limits (-10.0 170.0)
  end
  begin
     id 20
     name lwrist
     direction 1 -4.48997e-011 -9.5942e-028   
     length 1.75507   
     axis 8.48502e-016 90 90   XYZ
    dof ry
    limits (-180.0 0.0)
 end
  begin
     id 21 
     name lhand
     direction 1 -4.48831e-011 -1.90777e-027   
     length 0.706179   
     axis 1.22306e-015 90 90   XYZ
    dof rx rz
    limits (-90.0 90.0)
           (-45.0 45.0)
  end
  begin
     id 22 
     name lfingers
     direction 1 -4.49108e-011 -3.85244e-027   
     length 0.569339   
     axis 2.44611e-015 90 90   XYZ
    dof rx
    limits (0.0 90.0)
  end
  begin
     id 23
     name lthumb
     direction 0.707107 -6.34953e-011 0.707107   
     length 0.817461   
     axis -90 45 -1.62303e-014   XYZ
    dof rx rz
    limits (-45.0 45.0)
           (-45.0 45.0)
  end
  begin
     id 24 
     name rclavicle
     direction -0.905329 0.382405 -0.184787   
     length 3.30787  
     axis 0 0 0   XYZ 
    dof ry rz
    limits (-10.0 20.0)
           (-20.0 0.0)
  end
  begin
     id 25 
     name rhumerus
     direction -1 -4.48953e-011 -9.15316e-029  
     length 5.28721   
     axis 180 30 90   XYZ
    dof rx ry rz
    limits (-90.0 60.0)
           (-90.0 90.0)
           (-90.0 90.0)
  end
  begin
     id 26 
     name rradius
     direction -1 -4.48987e-011 9.37824e-028   
     length 3.50544   
     axis 180 30 90   XYZ
    dof rx
    limits (-10.0 170.0)
  end
  begin
     id 27 
     name rwrist
     direction -1 -4.48967e-011 -9.58414e-028   
     length 1.75272   
     axis 8.48502e-016 -90 -90   XYZ
    dof ry
    limits (-180.0 0.0)
  end
  begin
     id 28
     name rhand
     direction -1 -4.48904e-011 -1.91266e-027   
     length 0.884996   
     axis 1.22306e-015 -90 -90   XYZ
    dof rx rz
    limits (-90.0 90.0)
           (-45.0 45.0)
  end
  begin
     id 29
     name rfingers
     direction -1 -4.4909e-011 -3.85015e-027   
     length 0.713507   
     axis 2.44611e-015 -90 -90   XYZ
    dof rx
    limits (0.0 90.0)
  end
  begin
     id 30
     name rthumb
     direction -0.707107 -6.34853e-011 0.707107   
     length 1.02446   
     axis -90 -45 1.62303e-014   XYZ
    dof rx rz
    limits (-45.0 45.0)
           (-45.0 45.0)
  end
:hierarchy
  begin
    root lhipjoint rhipjoint lowerback
    lhipjoint lfemur
    lfemur ltibia
    ltibia lfoot
    lfoot ltoes
    rhipjoint rfemur
    rfemur rtibia
    rtibia rfoot
    rfoot rtoes
    lowerback upperback
    upperback thorax
    thorax lowerneck lclavicle rclavicle
    lowerneck upperneck
    upperneck head
    lclavicle lhumerus
    lhumerus lradius
    lradius lwrist
    lwrist lhand lthumb
    lhand lfingers
    rclavicle rhumerus
    rhumerus rradius
    rradius rwrist
    rwrist rhand rthumb
    rhand rfingers
  end

#!OML:ASF F:\twosubjects\two\Thursday\Session 1\justin.ASF
:FULLY-SPECIFIED
:DEGREES
266
root 12.9128 13.2619 -16.4406 8.51157 -77.9561 -0.854694
lowerback 23.4921 2.08054 0.0567507
upperback 5.21077 2.75624 4.72424
thorax -7.5892 1.19538 4.36241
lowerneck -24.265 5.95523 -3.17407
upperneck 10.8434 8.96904 0.0651266
head 7.05842 4.15093 1.64449
rclavicle -4.92986e-014 -3.33958e-014
rhumerus -31.0784 -37.1474 -44.643
rradius 36.6093
rwrist -5.44874
rhand -16.023 14.2952
rfingers 7.12502
rthumb 10.1779 -15.4386
lclavicle -4.92986e-014 -3.33958e-014
lhumerus -34.3497 28.7419 58.3158
lradius 41.332
lwrist -13.0135
lhand -2.08741 36.3094
lfingers 7.12502
lthumb 23.5896 64.8825
rfemur -59.9523 -28.5995 21.3172
rtibia 106.566
rfoot -31.4519 17.9249
rtoes -12.2029
lfemur -61.4252 25.9021 -17.1702
ltibia 103.941
lfoot -26.5933 -17.8199
ltoes -13.3121
267
root 12.8919 13.4069 -16.4345 8.96101 -78.1898 -1.18327
lowerback 23.2589 2.20486 0.0857908
upperback 5.02579 2.94168 4.7124
thorax -7.68545 1.29276 4.27867
lowerneck -24.1312 5.83248 -3.30841
upperneck 10.9748 8.82266 0.221629
head 7.07061 4.08934 1.69728
rclavicle -1.51076e-014 2.22639e-014
rhumerus -31.5151 -37.2584 -44.5493
rradius 36.7319
rwrist -5.26667
rhand -16.1581 13.8714
rfingers 7.12502
rthumb 10.0477 -15.8687
lclavicle -1.51076e-014 2.22639e-014
lhumerus -34.3507 28.3127 59.0878
lradius 41.1834
lwrist -12.5197
lhand -2.25297 36.4671
lfingers 7.12502
lthumb 23.4307 65.0605
rfemur -59.0952 -27.6877 21.4222
rtibia 104.965
rfoot -31.4744 17.2048
rtoes -12.4088
lfemur -60.4908 25.5693 -17.1186
ltibia 102.443
lfoot -26.3189 -17.7009
ltoes -11.6267
268
root 12.8735 13.5543 -16.425 8.65158 -78.1909 -0.715168
lowerback 22.9843 2.34217 0.115732
upperback 4.81756 3.14464 4.65612
thorax -7.78351 1.4 4.14078
lowerneck -23.491 5.62771 -3.29185
upperneck 10.3708 8.50535 0.194996
head 6.77974 3.95579 1.61146
rclavicle -2.8625e-014 -1.11319e-014
rhumerus -32.2174 -37.3653 -44.2668
rradius 36.7211
rwrist -5.39809
rhand -16.2446 14.3051
rfingers 7.12502
rthumb 9.9642 -15.439
lclavicle -2.8625e-014 -1.11319e-014
lhumerus -34.2694 27.7955 60.053
lradius 41.1544
lwrist -12.3502
lhand -2.36938 36.5786
lfingers 7.12502
lthumb 23.3191 65.1863
rfemur -58.1788 -27.0023 21.3966
rtibia 103.27
rfoot -31.6024 16.3702
rtoes -13.6694
lfemur -59.5948 24.8768 -17.2994
ltibia 100.869
lfoot -26.144 -17.2025
ltoes -11.7855
269
root 12.8526 13.7076 -16.4185 9.07052 -78.0531 -1.09271
lowerback 22.7352 2.36735 0.420197
upperback 4.68062 3.25637 4.6077
thorax -7.79295 1.45298 3.88134
lowerneck -23.4001 5.40447 -3.14851
upperneck 10.2561 8.15778 0.178823
head 6.74194 3.79603 1.53827
rclavicle -5.56597e-015 3.18055e-015
rhumerus -32.6846 -37.2482 -44.2599
rradius 36.6992
rwrist -6.12788
rhand -16.103 14.5359
rfingers 7.12502
rthumb 10.1008 -15.2017
lclavicle -5.56597e-015 3.18055e-015
lhumerus -34.2566 27.5784 60.7746
lradius 41.0891
lwrist -12.7372
lhand -2.20905 36.0567
lfingers 7.12502
lthumb 23.4729 64.6447
rfemur -57.0545 -26.3889 21.5013
rtibia 101.549
rfoot -31.6772 15.7239
rtoes -14.8023
lfemur -58.528 24.1652 -17.2666
ltibia 99.1805
lfoot -26.2288 -16.5437
ltoes -12.6442
270
root 12.8217 13.8626 -16.4155 8.62463 -78.1953 -0.561628
lowerback 22.399 2.45489 0.263119
upperback 4.56976 3.33855 4.54255
thorax -7.74975 1.5025 3.88012
lowerneck -23.8046 5.31922 -3.17692
upperneck 10.8316 8.04658 0.407712
head 6.98595 3.74794 1.63083
rclavicle -6.12257e-014 -1.27222e-014
rhumerus -32.9989 -37.5324 -44.3045
rradius 36.6149
rwrist -5.91549
rhand -15.8316 14.5019
rfingers 7.12502
rthumb 10.3626 -15.2228
lclavicle -6.12257e-014 -1.27222e-014
lhumerus -34.3533 27.3918 61.3198
lradius 40.9316
lwrist -13.0399
lhand -1.66967 35.7369
lfingers 7.12502
lthumb 23.9902 64.2579
rfemur -56.0118 -25.7584 21.3136
rtibia 99.9267
rfoot -31.5664 15.6265
rtoes -13.499
lfemur -57.3506 23.7198 -17.425
ltibia 97.465
lfoot -26.1617 -16.0535
ltoes -12.1216
271
root 12.7985 14.015 -16.4165 7.77966 -78.1194 0.479384
lowerback 21.9804 2.48657 -0.106905
upperback 4.4476 3.30903 4.565
thorax -7.68475 1.50537 4.1324
lowerneck -24.0265 5.35517 -3.14838
upperneck 11.1735 8.10645 0.394065
head 7.13481 3.76678 1.64502
rclavicle -2.54444e-014 -6.04305e-014
rhumerus -33.1617 -37.4903 -44.3768
rradius 36.4856
rwrist -5.76403
rhand -15.9354 14.7064
rfingers 7.12502
rthumb 10.2625 -15.0232
lclavicle -2.54444e-014 -6.04305e-014
lhumerus -34.3107 27.6478 61.8923
lradius 40.6045
lwrist -13.7981
lhand -1.62048 36.0486
lfingers 7.12502
lthumb 24.0374 64.5633
rfemur -55.132 -25.4115 21.1516
rtibia 98.2914
rfoot -31.4502 15.3009
rtoes -12.0949
lfemur -56.436 23.0053 -17.6711
ltibia 95.8032
lfoot -25.4371 -16.1503
ltoes -8.77322
272
root 12.798 14.1551 -16.4349 8.87111 -77.6011 -0.124256
lowerback 21.4397 2.26198 -0.0997795
upperback 4.19899 3.04842 4.70937
thorax -7.66013 1.39336 4.36874
lowerneck -24.0969 5.42687 -3.23903
upperneck 11.194 8.2273 0.432082
head 7.14438 3.8233 1.68845
rclavicle 5.96354e-014 4.77083e-015
rhumerus -32.8416 -36.6301 -44.9792
rradius 36.4939
rwrist -6.63817
rhand -16.5463 14.4124
rfingers 7.12502
rthumb 9.67315 -15.3455
lclavicle 5.96354e-014 4.77083e-015
lhumerus -34.3147 28.1445 62.3911
lradius 40.2354
lwrist -14.4201
lhand -1.46767 36.6474
lfingers 7.12502
lthumb 24.1839 65.1427
rfemur -54.8232 -25.12 21.796
rtibia 96.719
rfoot -31.3648 14.2702
rtoes -11.9039
lfemur -56.2717 22.0529 -17.6169
ltibia 94.2419
lfoot -24.4443 -16.3281
ltoes -5.99038
273
root 12.773 14.3042 -16.4287 9.66167 -77.7394 -0.884803
lowerback 21.1663 2.11888 -0.00284182
upperback 4.15376 2.88483 4.74754
thorax -7.54872 1.31438 4.40376
lowerneck -24.2961 5.53831 -3.62875
upperneck 11.2407 8.4468 0.788662
head 7.15199 3.94524 1.89757
rclavicle -1.35174e-014 2.54444e-014
rhumerus -32.3209 -36.4101 -45.739
rradius 36.5098
rwrist -6.74089
rhand -16.7809 14.109
rfingers 7.12502
rthumb 9.44675 -15.6593
lclavicle -1.35174e-014 2.54444e-014
lhumerus -34.3752 28.4166 62.7949
lradius 39.7686
lwrist -14.4207
lhand -0.545322 36.878
lfingers 7.12502
lthumb 25.0679 65.2528
rfemur -53.7785 -24.3593 22.0086
rtibia 95.0148
rfoot -31.377 13.366
rtoes -11.82
lfemur -55.1886 21.8802 -17.4946
ltibia 92.5729
lfoot -24.6334 -15.5797
ltoes -8.5058
274
root 12.7689 14.4307 -16.4396 8.58185 -77.6118 0.519284
lowerback 20.8773 2.06305 -0.360794
upperback 3.94947 2.74798 4.65218
thorax -7.61983 1.26765 4.5456
lowerneck -24.363 5.5499 -3.76553
upperneck 11.2159 8.48562 0.913394
head 7.14114 3.97062 1.96492
rclavicle -2.3059e-014 -1.27222e-014
rhumerus -32.448 -36.9794 -45.9877
rradius 36.4956
rwrist -6.09919
rhand -16.4378 14.3218
rfingers 7.12502
rthumb 9.77781 -15.4312
lclavicle -2.3059e-014 -1.27222e-014
lhumerus -34.1799 27.9247 63.3907
lradius 39.2861
lwrist -14.1481
lhand 0.0847855 36.577
lfingers 7.12502
lthumb 25.6716 64.866
rfemur -53.2429 -23.8943 21.9382
rtibia 93.4391
rfoot -31.252 12.4355
rtoes -12.5307
lfemur -54.7026 21.658 -17.9682
ltibia 90.986
lfoot -24.5659 -15.0496
ltoes -9.73704
